<?xml version="1.0" encoding="utf-8"?>
<!-- Generator: Adobe Illustrator 22.0.1, SVG Export Plug-In . SVG Version: 6.00 Build 0)  -->
<svg version="1.1" id="Layer_1" xmlns="http://www.w3.org/2000/svg" xmlns:xlink="http://www.w3.org/1999/xlink" x="0px" y="0px"
	 viewBox="0 0 204.2 204.2" style="enable-background:new 0 0 204.2 204.2;" xml:space="preserve">
<style type="text/css">
	.st0{fill:none;stroke:#1A1A1A;stroke-width:0.5985;}
	.st1{fill:#404041;stroke:#404041;stroke-width:0.5985;}
	.st2{fill:none;stroke:#1A1A1A;stroke-width:0.2244;}
	.st3{fill:#FFFFFF;stroke:#1A1A1A;stroke-width:0.5985;}
</style>
<g>
	<rect x="0.3" y="0.3" class="st0" width="203.6" height="203.6"/>
	<rect x="0.8" y="0.8" class="st1" width="202.5" height="202.5"/>
	<g>
		<rect x="0.3" y="0.3" class="st0" width="203.6" height="203.6"/>
		<rect x="0.8" y="0.8" class="st2" width="202.5" height="202.5"/>
	</g>
	<path class="st3" d="M48.6,73.8H28.8v49.6h12.9v-16.5H49c11.3,0,17.6-5.1,17.6-16.9C66.7,78.7,59.3,73.8,48.6,73.8z M44,96.6h-2.2
		V84.2H44c5,0,9.3,0.1,9.3,6.3C53.3,96.6,48.6,96.6,44,96.6z M97.3,103.9l-12-30.2h-14l20.9,49.7h10l21.2-49.7h-14L97.3,103.9z
		 M162.3,73.8V93h-18.6V73.8h-13v49.6h13V103h18.6v20.4h12.9V73.7h-12.9V73.8z"/>
</g>
</svg>
