<?xml version="1.0" encoding="utf-8"?>
<!-- Generator: Adobe Illustrator 22.1.0, SVG Export Plug-In . SVG Version: 6.00 Build 0)  -->
<svg version="1.1" id="Layer_1" xmlns="http://www.w3.org/2000/svg" xmlns:xlink="http://www.w3.org/1999/xlink" x="0px" y="0px"
	 viewBox="0 0 24 24" style="enable-background:new 0 0 24 24;" xml:space="preserve">
<style type="text/css">
	.st0{fill:#FFFFFF;}
</style>
<g>
	<title>hierarchy-4</title>
	<path class="st0" d="M19.5,24c-0.8,0-1.5-0.7-1.5-1.5v-3c0-0.8,0.7-1.5,1.5-1.5h1c-0.3-2.8-2.6-5-5.5-5h-2.5v5h1
		c0.8,0,1.5,0.7,1.5,1.5v3c0,0.8-0.7,1.5-1.5,1.5h-3C9.7,24,9,23.3,9,22.5v-3c0-0.8,0.7-1.5,1.5-1.5h1v-5H9c-2.9,0-5.2,2.2-5.5,5h1
		C5.3,18,6,18.7,6,19.5v3C6,23.3,5.3,24,4.5,24h-3C0.7,24,0,23.3,0,22.5v-3C0,18.7,0.7,18,1.5,18h1c0.3-3.4,3.1-6,6.5-6h2.5V6h-1
		C9.7,6,9,5.3,9,4.5v-3C9,0.7,9.7,0,10.5,0h3C14.3,0,15,0.7,15,1.5v3C15,5.3,14.3,6,13.5,6h-1v6H15c3.4,0,6.2,2.6,6.5,6h1
		c0.8,0,1.5,0.7,1.5,1.5v3c0,0.8-0.7,1.5-1.5,1.5H19.5z M19.5,19c-0.3,0-0.5,0.2-0.5,0.5v3c0,0.3,0.2,0.5,0.5,0.5h3
		c0.3,0,0.5-0.2,0.5-0.5v-3c0-0.3-0.2-0.5-0.5-0.5H21c0,0,0,0,0,0s0,0,0,0H19.5z M10.5,19c-0.3,0-0.5,0.2-0.5,0.5v3
		c0,0.3,0.2,0.5,0.5,0.5h3c0.3,0,0.5-0.2,0.5-0.5v-3c0-0.3-0.2-0.5-0.5-0.5H10.5z M1.5,19C1.2,19,1,19.2,1,19.5v3
		C1,22.8,1.2,23,1.5,23h3C4.8,23,5,22.8,5,22.5v-3C5,19.2,4.8,19,4.5,19H3c0,0,0,0,0,0s0,0,0,0H1.5z M10.5,1C10.2,1,10,1.2,10,1.5v3
		C10,4.8,10.2,5,10.5,5h3C13.8,5,14,4.8,14,4.5v-3C14,1.2,13.8,1,13.5,1C13.5,1,10.5,1,10.5,1z"/>
</g>
</svg>
