<?xml version="1.0" encoding="utf-8"?>
<!-- Generator: Adobe Illustrator 22.1.0, SVG Export Plug-In . SVG Version: 6.00 Build 0)  -->
<svg version="1.1" id="Layer_1" xmlns="http://www.w3.org/2000/svg" xmlns:xlink="http://www.w3.org/1999/xlink" x="0px" y="0px"
	 viewBox="0 0 24 24" style="enable-background:new 0 0 24 24;" xml:space="preserve">
<style type="text/css">
	.st0{fill:#FFFFFF;}
</style>
<g>
	<title>cloud-storage-drive</title>
	<path class="st0" d="M5,24c-1.7,0-3-1.3-3-3v-2.5c0,0,0,0,0,0c0,0,0-0.1,0-0.1c0,0,0,0,0,0l1.5-3.4c-0.7-0.1-1.7-0.4-2.5-1.2
		C0.4,13,0,12,0,10.8c0-0.3,0-0.6,0.1-0.9C0.3,8.8,1,7.8,1.9,7.2c0.7-0.5,1.5-0.7,2.3-0.7c0.1,0,0.2,0,0.3,0C4.9,4,6.5,1.8,8.8,0.7
		C9.8,0.2,10.9,0,12,0c2.8,0,5.3,1.5,6.6,4c3,0.1,5.4,2.5,5.4,5.5c0,3.7-2.8,4.9-4.1,5.3l2,3.4c0,0,0,0,0,0.1c0,0,0,0,0,0
		c0,0.1,0,0.1,0,0.2V21c0,1.7-1.3,3-3,3H5z M3,21c0,1.1,0.9,2,2,2h14c1.1,0,2-0.9,2-2v-2H3V21z M20.6,18l-2.6-4.4
		C17.8,13.3,17.4,13,17,13H6.2c-0.4,0-0.8,0.3-1,0.6l-2,4.4H20.6z M4.2,7.5c-1.5,0-2.9,1.1-3.2,2.6C1,10.3,1,10.5,1,10.8
		c0,1,0.3,1.8,0.8,2.3C2.5,13.7,3.5,13.9,4,14l0.4-0.8C4.7,12.5,5.5,12,6.2,12L17,12c0.8,0,1.5,0.5,1.9,1.1l0.5,0.8
		c1-0.2,3.6-1.2,3.6-4.4C23,7,21,5,18.5,5c-0.1,0-0.1,0-0.2,0c0,0,0,0,0,0c-0.2,0-0.4-0.1-0.5-0.3C16.8,2.5,14.5,1,12,1
		c-1,0-1.9,0.2-2.8,0.6c-2.1,1-3.6,3.1-3.7,5.5c0,0.1-0.1,0.3-0.2,0.4C5.2,7.5,5.1,7.6,5,7.6c0,0-0.1,0-0.1,0
		C4.7,7.5,4.5,7.5,4.2,7.5z"/>
	<path class="st0" d="M15,22c-0.3,0-0.5-0.2-0.5-0.5S14.7,21,15,21h3c0.3,0,0.5,0.2,0.5,0.5S18.3,22,18,22H15z"/>
</g>
</svg>
