<?xml version="1.0" encoding="utf-8"?>
<!-- Generator: Adobe Illustrator 22.1.0, SVG Export Plug-In . SVG Version: 6.00 Build 0)  -->
<svg version="1.1" id="Layer_1" xmlns="http://www.w3.org/2000/svg" xmlns:xlink="http://www.w3.org/1999/xlink" x="0px" y="0px"
	 viewBox="0 0 24 24" style="enable-background:new 0 0 24 24;" xml:space="preserve">
<style type="text/css">
	.st0{fill:#B479FF;}
</style>
<g>
	<title>touch-id-1</title>
	<path class="st0" d="M12,24c-0.3,0-0.5-0.2-0.5-0.5S11.7,23,12,23c4.7,0,8.5-3.8,8.5-8.5v-5c0-2.1-0.8-4.1-2.2-5.7
		c-0.1-0.1-0.1-0.2-0.1-0.4c0-0.1,0.1-0.3,0.2-0.3C18.5,3.1,18.6,3,18.7,3c0.1,0,0.3,0.1,0.4,0.2c1.6,1.7,2.4,4,2.4,6.3v5
		C21.5,19.7,17.2,24,12,24z"/>
	<path class="st0" d="M8.5,23.3c-0.1,0-0.1,0-0.2,0c-3.5-1.5-5.8-4.9-5.8-8.8v-3C2.5,11.2,2.7,11,3,11s0.5,0.2,0.5,0.5v3
		c0,3.4,2,6.5,5.2,7.8c0.1,0.1,0.2,0.1,0.3,0.3s0,0.3,0,0.4C8.9,23.2,8.7,23.3,8.5,23.3z"/>
	<path class="st0" d="M3,9.5C2.7,9.5,2.5,9.3,2.5,9C2.6,7.5,3,6,3.8,4.8C5.5,1.8,8.6,0,12,0c1.7,0,3.3,0.4,4.7,1.3
		c0.1,0.1,0.2,0.2,0.2,0.3s0,0.3,0,0.4c-0.1,0.2-0.3,0.2-0.4,0.2c-0.1,0-0.2,0-0.3-0.1C15,1.4,13.5,1,12,1C9,1,6.2,2.6,4.6,5.3
		C4,6.4,3.6,7.7,3.5,9C3.5,9.3,3.3,9.5,3,9.5C3,9.5,3,9.5,3,9.5z"/>
	<path class="st0" d="M17.8,16.5c0,0-0.1,0-0.1,0c-0.3-0.1-0.4-0.3-0.4-0.6c0.1-0.4,0.2-0.9,0.2-1.4v-5c0-0.8-0.2-1.6-0.5-2.3
		c-0.6-1.3-1.7-2.4-3.1-2.9C13.3,4.1,12.6,4,12,4c-0.8,0-1.6,0.2-2.3,0.5c-0.1,0-0.1,0-0.2,0C9.3,4.5,9.1,4.4,9,4.3
		C8.9,4,9,3.7,9.3,3.6C10.2,3.2,11.1,3,12,3c0.8,0,1.5,0.1,2.3,0.4c1.6,0.6,2.9,1.8,3.6,3.4c0.4,0.9,0.6,1.8,0.6,2.7v5
		c0,0.5-0.1,1.1-0.2,1.6C18.2,16.4,18,16.5,17.8,16.5z"/>
	<path class="st0" d="M12,21c-1.6,0-3.1-0.6-4.3-1.7c-1.4-1.2-2.2-3-2.2-4.8v-5c0-1.6,0.6-3.1,1.7-4.3C7.3,5.1,7.4,5,7.5,5
		c0.1,0,0.2,0,0.3,0.1C8,5.2,8,5.3,8,5.5c0,0.1,0,0.3-0.1,0.4C7,6.8,6.5,8.1,6.5,9.5v5c0,1.6,0.7,3.1,1.8,4.1c1,0.9,2.3,1.4,3.7,1.4
		c0.1,0,0.2,0,0.3,0c1.5-0.1,2.8-0.7,3.8-1.8c0.1-0.1,0.2-0.2,0.4-0.2c0.1,0,0.2,0,0.3,0.1c0.2,0.2,0.2,0.5,0,0.7
		c-1.2,1.3-2.8,2.1-4.5,2.2C12.2,21,12.1,21,12,21z"/>
	<path class="st0" d="M12,18c-1.9,0-3.5-1.6-3.5-3.5C8.5,14.2,8.7,14,9,14s0.5,0.2,0.5,0.5c0,1.4,1.1,2.5,2.5,2.5
		c1.4,0,2.5-1.1,2.5-2.5v-5C14.5,8.1,13.4,7,12,7c-1.4,0-2.5,1.1-2.5,2.5v3C9.5,12.8,9.3,13,9,13s-0.5-0.2-0.5-0.5v-3
		C8.5,7.6,10.1,6,12,6s3.5,1.6,3.5,3.5v5C15.5,16.4,13.9,18,12,18z"/>
	<path class="st0" d="M12,13c-0.3,0-0.5-0.2-0.5-0.5v-3C11.5,9.2,11.7,9,12,9s0.5,0.2,0.5,0.5v3C12.5,12.8,12.3,13,12,13z"/>
	<path class="st0" d="M12,16c-0.3,0-0.5-0.2-0.5-0.5v-1c0-0.3,0.2-0.5,0.5-0.5s0.5,0.2,0.5,0.5v1C12.5,15.8,12.3,16,12,16z"/>
</g>
</svg>
