<?xml version="1.0" encoding="utf-8"?>
<!-- Generator: Adobe Illustrator 22.1.0, SVG Export Plug-In . SVG Version: 6.00 Build 0)  -->
<svg version="1.1" id="Layer_1" xmlns="http://www.w3.org/2000/svg" xmlns:xlink="http://www.w3.org/1999/xlink" x="0px" y="0px"
	 viewBox="0 0 24 24" style="enable-background:new 0 0 24 24;" xml:space="preserve">
<style type="text/css">
	.st0{fill:#B479FF;}
</style>
<g>
	<title>science-molecule</title>
	<path class="st0" d="M12,24c-1.6,0-3-1.6-3.9-4.5C6.9,19.8,5.9,20,5,20c-1.4,0-2.4-0.4-2.9-1.2c-0.8-1.2-0.5-3,1-5.1
		c0.4-0.6,0.8-1.1,1.3-1.7c-0.5-0.6-1-1.1-1.3-1.7c-1.4-2.1-1.8-3.9-1-5.1C2.7,4.4,3.7,4,5,4c0.9,0,1.9,0.2,3,0.5C9,1.6,10.4,0,12,0
		s3,1.6,3.9,4.5C17.1,4.2,18.1,4,19,4c1.4,0,2.4,0.4,2.9,1.2c0.8,1.2,0.5,3-1,5.1c-0.4,0.6-0.8,1.1-1.3,1.7c0.5,0.6,1,1.1,1.3,1.7
		c1.4,2.1,1.8,3.9,1,5.1C21.3,19.6,20.3,20,19,20c-0.9,0-1.9-0.2-3-0.5C15,22.4,13.6,24,12,24z M9,19.2c0.8,2.4,1.9,3.8,3,3.8
		s2.2-1.4,3-3.8c-1-0.3-2-0.8-3-1.3C11,18.4,10,18.8,9,19.2z M5.1,12.7c-0.5,0.5-0.9,1-1.2,1.5c-1.2,1.7-1.5,3.2-1,4
		C3.4,18.9,4.3,19,5,19c0.8,0,1.7-0.2,2.8-0.5c-0.3-1.2-0.5-2.5-0.7-4C6.4,14,5.7,13.4,5.1,12.7z M16.2,18.5c1,0.3,2,0.5,2.8,0.5
		c0.7,0,1.6-0.1,2.1-0.8c0.5-0.8,0.2-2.3-1-4c-0.3-0.5-0.7-1-1.2-1.5c-0.6,0.6-1.3,1.2-2,1.8C16.8,16,16.5,17.3,16.2,18.5z
		 M8.2,15.4c0.1,1,0.3,1.9,0.5,2.8c0.7-0.3,1.5-0.6,2.2-1c-0.6-0.4-1.2-0.7-1.8-1.1C8.8,15.9,8.5,15.7,8.2,15.4z M13.1,17.3
		c0.8,0.4,1.5,0.7,2.2,1c0.2-0.9,0.4-1.8,0.5-2.8c-0.3,0.2-0.6,0.5-1,0.7C14.3,16.5,13.7,16.9,13.1,17.3z M8.1,14.1
		c0.5,0.4,1.1,0.8,1.7,1.2c0.7,0.5,1.5,1,2.3,1.4c0.8-0.4,1.5-0.9,2.3-1.4c0.6-0.4,1.1-0.8,1.7-1.2C16,13.4,16,12.7,16,12
		s0-1.4-0.1-2.1c-0.5-0.4-1.1-0.8-1.7-1.2c-0.7-0.5-1.5-1-2.3-1.4c-0.8,0.4-1.5,0.9-2.3,1.4C9.2,9.1,8.6,9.5,8.1,9.9
		C8,10.6,8,11.3,8,12S8,13.4,8.1,14.1z M17,10.8c0,0.4,0,0.8,0,1.2s0,0.8,0,1.2c0.4-0.4,0.9-0.8,1.2-1.2
		C17.8,11.6,17.4,11.2,17,10.8z M5.8,12c0.4,0.4,0.8,0.8,1.2,1.2c0-0.4,0-0.8,0-1.2s0-0.8,0-1.2C6.6,11.2,6.2,11.6,5.8,12z M5,5
		C4.3,5,3.4,5.1,2.9,5.8c-0.5,0.8-0.2,2.3,1,4c0.3,0.5,0.7,1,1.2,1.5c0.6-0.6,1.3-1.2,2-1.8c0.1-1.4,0.3-2.7,0.7-4
		C6.7,5.2,5.8,5,5,5z M16.9,9.4c0.7,0.6,1.4,1.2,2,1.8c0.5-0.5,0.9-1,1.2-1.5c1.2-1.7,1.5-3.2,1-4C20.6,5.1,19.7,5,19,5
		c-0.8,0-1.7,0.2-2.8,0.5C16.5,6.7,16.8,8,16.9,9.4z M13.1,6.7c0.6,0.4,1.2,0.7,1.8,1.1c0.3,0.2,0.6,0.4,1,0.7
		c-0.1-1-0.3-1.9-0.5-2.8C14.5,6.1,13.8,6.4,13.1,6.7z M8.7,5.8C8.5,6.7,8.3,7.6,8.2,8.6c0.3-0.2,0.6-0.5,1-0.7
		c0.6-0.4,1.2-0.8,1.8-1.1C10.2,6.4,9.5,6.1,8.7,5.8z M9,4.8c1,0.3,2,0.8,3,1.3c1-0.5,2-1,3-1.3C14.2,2.4,13.1,1,12,1S9.8,2.4,9,4.8
		z"/>
	<path class="st0" d="M12,14.5c-1.4,0-2.5-1.1-2.5-2.5c0-1.4,1.1-2.5,2.5-2.5c1.4,0,2.5,1.1,2.5,2.5C14.5,13.4,13.4,14.5,12,14.5z
		 M12,10.5c-0.8,0-1.5,0.7-1.5,1.5s0.7,1.5,1.5,1.5s1.5-0.7,1.5-1.5S12.8,10.5,12,10.5z"/>
</g>
</svg>
