<?xml version="1.0" encoding="utf-8"?>
<!-- Generator: Adobe Illustrator 22.1.0, SVG Export Plug-In . SVG Version: 6.00 Build 0)  -->
<svg version="1.1" id="Layer_1" xmlns="http://www.w3.org/2000/svg" xmlns:xlink="http://www.w3.org/1999/xlink" x="0px" y="0px"
	 viewBox="0 0 24 24" style="enable-background:new 0 0 24 24;" xml:space="preserve">
<style type="text/css">
	.st0{fill:#FFFFFF;}
</style>
<g>
	<title>phone-charger</title>
	<path class="st0" d="M4.5,7C4.2,7,4,6.8,4,6.5S4.2,6,4.5,6h4C8.8,6,9,6.2,9,6.5S8.8,7,8.5,7H4.5z"/>
	<path class="st0" d="M10.5,24C8,24,6,22,6,19.5V17H5.5C4.7,17,4,16.3,4,15.5v-2c-2.4-1-4-3.4-4-6v-3C0,3.7,0.7,3,1.5,3H2V0.5
		C2,0.2,2.2,0,2.5,0S3,0.2,3,0.5V3h7V0.5C10,0.2,10.2,0,10.5,0S11,0.2,11,0.5V3h0.5C12.3,3,13,3.7,13,4.5v3c0,2.6-1.6,5-4,6v2
		C9,16.3,8.3,17,7.5,17H7v2.5c0,1.9,1.6,3.5,3.5,3.5s3.5-1.6,3.5-3.5v-0.8c0-3.2,2.6-5.8,5.8-5.8h3.8c0.3,0,0.5,0.2,0.5,0.5
		S23.8,14,23.5,14h-3.8c-2.6,0-4.8,2.1-4.8,4.8v0.8C15,22,13,24,10.5,24z M5,15.5C5,15.8,5.2,16,5.5,16h2C7.8,16,8,15.8,8,15.5v-1.7
		C7.5,13.9,7,14,6.5,14s-1-0.1-1.5-0.2V15.5z M1.5,4C1.2,4,1,4.2,1,4.5v3c0,3,2.5,5.5,5.5,5.5S12,10.5,12,7.5v-3
		C12,4.2,11.8,4,11.5,4H1.5z"/>
</g>
</svg>
