<?xml version="1.0" encoding="utf-8"?>
<!-- Generator: Adobe Illustrator 22.0.1, SVG Export Plug-In . SVG Version: 6.00 Build 0)  -->
<svg version="1.1" id="Layer_1" xmlns="http://www.w3.org/2000/svg" xmlns:xlink="http://www.w3.org/1999/xlink" x="0px" y="0px"
	 viewBox="0 0 614 247.2" style="enable-background:new 0 0 614 247.2;" xml:space="preserve">
<style type="text/css">
	.st0{fill:#005EB8;}
</style>
<g>
	<path class="st0" d="M614,247.2V0H0v247.2H614L614,247.2z M246.9,23.9l-42.4,199H138L96.1,85.2h-0.6L67.8,222.9H17.3L60,23.9h66.7
		l41,138h0.6l28.1-138H246.9L246.9,23.9z M437.1,23.9l-41.6,199H342l17.8-85.2h-63.4l-17.8,85.2h-53.6l41.6-199h53.6L304.5,100h63.3
		l15.8-76.1H437.1L437.1,23.9z M591,29.3l-12.9,39.6c-10.3-4.8-24.4-9.1-44.1-9.1c-21.2,0-38.4,3.1-38.4,19.1
		c0,28.2,77.7,17.7,77.7,78.1c0,55-51.3,69.3-97.7,69.3c-20.6,0-44.4-4.9-61.9-10.3l12.6-40.5c10.6,6.9,31.8,11.4,49.3,11.4
		c16.6,0,42.7-3.1,42.7-23.7c0-31.9-77.7-20-77.7-76.1c0-51.3,45.3-66.7,89.1-66.7C554.3,20.4,577.5,23,591,29.3L591,29.3z"/>
</g>
</svg>
