<?xml version="1.0" encoding="utf-8"?>
<!-- Generator: Adobe Illustrator 22.1.0, SVG Export Plug-In . SVG Version: 6.00 Build 0)  -->
<svg version="1.1" id="Layer_1" xmlns="http://www.w3.org/2000/svg" xmlns:xlink="http://www.w3.org/1999/xlink" x="0px" y="0px"
	 viewBox="0 0 24 24" style="enable-background:new 0 0 24 24;" xml:space="preserve">
<style type="text/css">
	.st0{fill:#FCDA0E;}
</style>
<g>
	<title>programming-browser</title>
	<path class="st0" d="M15.8,18.5c-0.1,0-0.3-0.1-0.4-0.1s-0.1-0.2-0.1-0.4s0.1-0.3,0.1-0.4L18,15l-2.6-2.6c-0.1-0.1-0.1-0.2-0.1-0.4
		s0.1-0.3,0.1-0.4s0.2-0.1,0.4-0.1s0.3,0.1,0.4,0.1l3,3c0.1,0.1,0.1,0.2,0.1,0.4s-0.1,0.3-0.1,0.4l-3,3C16,18.4,15.9,18.5,15.8,18.5
		z"/>
	<path class="st0" d="M8.3,18.5c-0.1,0-0.3-0.1-0.4-0.1l-3-3c-0.1-0.1-0.1-0.2-0.1-0.4s0.1-0.3,0.1-0.4l3-3c0.1-0.1,0.2-0.1,0.4-0.1
		s0.3,0.1,0.4,0.1s0.1,0.2,0.1,0.4s-0.1,0.3-0.1,0.4L6,15l2.6,2.6c0.1,0.1,0.1,0.2,0.1,0.4s-0.1,0.3-0.1,0.4S8.4,18.5,8.3,18.5z"/>
	<path class="st0" d="M10.5,18.5c-0.1,0-0.2,0-0.2-0.1c-0.2-0.1-0.3-0.4-0.2-0.7l3-6c0.1-0.2,0.3-0.3,0.4-0.3c0.1,0,0.2,0,0.2,0.1
		c0.2,0.1,0.3,0.4,0.2,0.7l-3,6C10.9,18.4,10.7,18.5,10.5,18.5z"/>
	<path class="st0" d="M2.5,21.5C1.1,21.5,0,20.4,0,19V5c0-1.4,1.1-2.5,2.5-2.5h19C22.9,2.5,24,3.6,24,5v14c0,1.4-1.1,2.5-2.5,2.5
		H2.5z M1,19c0,0.8,0.7,1.5,1.5,1.5h19c0.8,0,1.5-0.7,1.5-1.5V8.5H1V19z M23,7.5V5c0-0.8-0.7-1.5-1.5-1.5h-19C1.7,3.5,1,4.2,1,5v2.5
		H23z"/>
	<circle class="st0" cx="4" cy="5.5" r="0.8"/>
	<circle class="st0" cx="7" cy="5.5" r="0.8"/>
	<circle class="st0" cx="10" cy="5.5" r="0.8"/>
</g>
</svg>
