<?xml version="1.0" encoding="utf-8"?>
<!-- Generator: Adobe Illustrator 22.1.0, SVG Export Plug-In . SVG Version: 6.00 Build 0)  -->
<svg version="1.1" id="Layer_1" xmlns="http://www.w3.org/2000/svg" xmlns:xlink="http://www.w3.org/1999/xlink" x="0px" y="0px"
	 viewBox="0 0 24 24" style="enable-background:new 0 0 24 24;" xml:space="preserve">
<style type="text/css">
	.st0{fill:#FFFFFF;}
</style>
<g>
	<title>conversation-text</title>
	<path class="st0" d="M6.5,6C6.2,6,6,5.8,6,5.5S6.2,5,6.5,5h11C17.8,5,18,5.2,18,5.5S17.8,6,17.5,6H6.5z"/>
	<path class="st0" d="M6.5,10C6.2,10,6,9.8,6,9.5S6.2,9,6.5,9H12c0.3,0,0.5,0.2,0.5,0.5S12.3,10,12,10H6.5z"/>
	<path class="st0" d="M13.5,15c-0.3,0-0.5-0.2-0.5-0.5s0.2-0.5,0.5-0.5h6c0.3,0,0.5,0.2,0.5,0.5S19.8,15,19.5,15H13.5z"/>
	<path class="st0" d="M13.5,18c-0.3,0-0.5-0.2-0.5-0.5s0.2-0.5,0.5-0.5h6c0.3,0,0.5,0.2,0.5,0.5S19.8,18,19.5,18H13.5z"/>
	<path class="st0" d="M6.5,14C6.2,14,6,13.8,6,13.5S6.2,13,6.5,13h2C8.8,13,9,13.2,9,13.5S8.8,14,8.5,14H6.5z"/>
	<path class="st0" d="M1.4,22.2c-0.1,0-0.3-0.1-0.4-0.2c-0.1-0.2-0.2-0.4-0.1-0.6l2.4-4.8C1.3,15,0.1,12.6,0,9.9
		c0-2.7,1.3-5.1,3.5-7C5.8,1,8.8,0,12,0c6.6,0,12,4.4,12,9.9c0,0.3-0.2,0.5-0.5,0.5S23,10.2,23,9.9C23,5,18.1,1,12,1S1,5,1,9.9
		c0.1,2.5,1.2,4.8,3.3,6.3c0.2,0.1,0.3,0.4,0.1,0.6l-1.9,3.9l5.3-2.5c0.1,0,0.1,0,0.2,0c0.2,0,0.4,0.1,0.5,0.3
		c0.1,0.1,0.1,0.3,0,0.4s-0.1,0.2-0.3,0.3l-6.6,3.1C1.5,22.2,1.4,22.2,1.4,22.2z"/>
	<path class="st0" d="M23,24c-0.1,0-0.1,0-0.2,0L19,22.2c-0.8,0.2-1.6,0.3-2.4,0.3c-4.1,0-7.4-2.8-7.4-6.1c0-3.4,3.3-6.1,7.4-6.1
		S24,13,24,16.4c0,1.6-0.7,3.1-1.9,4.2l1.4,2.7c0.1,0.2,0.1,0.4-0.1,0.6C23.2,23.9,23.1,24,23,24z M19,21.2c0.1,0,0.1,0,0.2,0
		l2.7,1.2L21,20.6c-0.1-0.2,0-0.5,0.1-0.6c1.2-0.9,1.8-2.2,1.9-3.6c0-2.8-2.9-5.1-6.4-5.1s-6.4,2.3-6.4,5.1c0,2.8,2.9,5.1,6.4,5.1
		c0.8,0,1.6-0.1,2.3-0.3C18.9,21.2,19,21.2,19,21.2z"/>
</g>
</svg>
