<?xml version="1.0" encoding="utf-8"?>
<!-- Generator: Adobe Illustrator 22.0.1, SVG Export Plug-In . SVG Version: 6.00 Build 0)  -->
<svg version="1.1" id="Layer_1" xmlns="http://www.w3.org/2000/svg" xmlns:xlink="http://www.w3.org/1999/xlink" x="0px" y="0px"
	 viewBox="0 0 197.8 105.6" style="enable-background:new 0 0 197.8 105.6;" xml:space="preserve">
<style type="text/css">
	.st0{fill:#645FAA;}
	.st1{fill:#C9234A;}
	.st2{fill:#0089CF;}
	.st3{fill:#F36F21;}
	.st4{fill:#0DB14B;}
	.st5{fill:#FDB913;}
</style>
<g>
	<path class="st0" d="M141.3,11.3c3.2,5.9,1.3,13.7-2,19.1l-26.1,53.5l-0.2,0.2l-9.5-54.3c-0.8-5.2,5.4-7.4,9-9.9
		c-0.2-0.8-1.1-0.7-1.7-1.1l-8.8-0.1l-0.3-0.2c0-6.8,4-13,10.8-16.2c7.1-3.7,17-2.7,23.1,2.1C138,6.3,140.1,8.7,141.3,11.3"/>
	<path class="st1" d="M93.2,9.4c2.1,3.6,3.4,7.7,2.6,12.2L85.1,83.8c0,0.1,0,0.2-0.1,0.2l-2.8-5L55.5,24.7c-2.5-7-0.2-14.3,5.4-19.3
		c5.6-5.2,14.9-6.6,22.3-3.8C87.1,3.1,90.9,6,93.2,9.4"/>
	<path class="st2" d="M180,35.6c3.6,5.6,2.8,14-1.2,19.2c-2.5,3.6-6.6,5.4-10,7.8l-55.3,34.6h-0.1l0.6-1.7l29.3-60.3
		c4.4-7.1,12.8-10.7,21.7-9.6C171,26.7,177.1,30.3,180,35.6"/>
	<path class="st3" d="M54.3,35.3l30.5,61.9h-0.5L22.7,58.6c-6.3-4.8-8.8-12-6.7-19.3c1.6-5.4,6.6-10.5,12.5-12.6
		C38.2,23.5,49.1,27,54.3,35.3"/>
	<path class="st4" d="M196.1,79.3c3.1,5.9,1.9,14-2.5,19c-4.3,4.8-10.2,7.4-17,7.3l-65.6,0l55-34.8c5.4-3.1,13.5-3.7,19.4-1.2
		C189.8,71.3,194.1,75.3,196.1,79.3"/>
	<path class="st5" d="M1.7,79.3c-3.1,5.9-1.9,14,2.5,19c4.4,4.8,10.2,7.4,17,7.3l65.6,0l-55-34.8c-5.4-3.1-13.5-3.7-19.4-1.2
		C8,71.3,3.7,75.3,1.7,79.3"/>
</g>
</svg>
