<?xml version="1.0" encoding="utf-8"?>
<!-- Generator: Adobe Illustrator 22.1.0, SVG Export Plug-In . SVG Version: 6.00 Build 0)  -->
<svg version="1.1" id="Layer_1" xmlns="http://www.w3.org/2000/svg" xmlns:xlink="http://www.w3.org/1999/xlink" x="0px" y="0px"
	 viewBox="0 0 24 24" style="enable-background:new 0 0 24 24;" xml:space="preserve">
<style type="text/css">
	.st0{fill:#FFFFFF;}
</style>
<g>
	<title>send-email-1</title>
	<path class="st0" d="M8.3,24L8.3,24C8.2,24,8.2,24,8.3,24c-0.6,0-1.1-0.4-1.2-0.9l-2.5-7L1,14.6c-0.3-0.1-0.6-0.4-0.8-0.7
		C0,13.5,0,13.1,0.1,12.7s0.4-0.7,0.8-0.9L22.5,0.1C22.6,0,22.8,0,23,0c0.1,0,0.2,0,0.3,0c0.1,0,0.3,0.1,0.4,0.2l0,0
		C24,0.5,24.1,0.9,24,1.3l-5.3,18.9c0,0.1,0,0.1-0.1,0.2c-0.2,0.4-0.5,0.7-0.9,0.8c-0.2,0.1-0.4,0.1-0.6,0.1s-0.4,0-0.6-0.1L12,19.3
		l-2.7,4.1c-0.2,0.2-0.4,0.4-0.6,0.5C8.6,24,8.5,24,8.3,24C8.4,24,8.3,24,8.3,24z M7.9,22.6l0.8-5.1v-0.1l0,0c0,0,0-0.1,0.1-0.1
		L19.5,4.4L5.5,16L7.9,22.6z M9,22.2l2.1-3.2l-1.5-0.6L9,22.2z M16.9,20.3c0.1,0,0.1,0,0.2,0s0.1,0,0.2,0c0.1-0.1,0.3-0.2,0.3-0.3
		c0,0,0,0,0-0.1l5-17.8L10,17.4L16.9,20.3z M1.3,12.6C1.2,12.7,1.1,12.8,1,13s0,0.3,0,0.4c0.1,0.1,0.2,0.2,0.3,0.3l3.5,1.5L20.4,2.4
		L1.3,12.6z"/>
</g>
</svg>
