<?xml version="1.0" encoding="utf-8"?>
<!-- Generator: Adobe Illustrator 22.0.1, SVG Export Plug-In . SVG Version: 6.00 Build 0)  -->
<svg version="1.1" id="Layer_1" xmlns="http://www.w3.org/2000/svg" xmlns:xlink="http://www.w3.org/1999/xlink" x="0px" y="0px"
	 viewBox="0 0 110.9 126.9" style="enable-background:new 0 0 110.9 126.9;" xml:space="preserve">
<style type="text/css">
	.st0{clip-path:url(#SVGID_2_);fill:#FF2896;}
	.st1{clip-path:url(#SVGID_2_);fill:#570066;}
</style>
<g>
	<defs>
		<rect id="SVGID_1_" y="0" width="110.9" height="126.9"/>
	</defs>
	<clipPath id="SVGID_2_">
		<use xlink:href="#SVGID_1_"  style="overflow:visible;"/>
	</clipPath>
	<path class="st0" d="M74.2,55.8l-4.9,28.8c-1,5.2-4.4,6.6-7.5,6.6H39.1l9.6-52.8c-9.6-4.4-19.3-7.2-27.1-7.2
		c-7.4,0-13.4,2-17.4,6.8C1.4,41.4,0,45.6,0,50.6c0,15,11.8,35.8,32,52.8c18,15,37.8,23.4,52.2,23.4c7.2,0,13-2.2,16.8-6.6
		c3-3.4,4.2-7.8,4.2-12.8C105.2,92.9,93.4,72.4,74.2,55.8"/>
	<path class="st1" d="M33.4,0c-3.6,0-6.6,2.4-7.4,6.2l-3.2,17.4h28.6L39.1,91.2h22.7c3,0,6.4-1.4,7.5-6.6l10.4-61h20.5
		c3.6,0,6.6-2.4,7.4-6.2L110.8,0H33.4z"/>
</g>
</svg>
