<?xml version="1.0" encoding="utf-8"?>
<!-- Generator: Adobe Illustrator 22.1.0, SVG Export Plug-In . SVG Version: 6.00 Build 0)  -->
<svg version="1.1" id="Layer_1" xmlns="http://www.w3.org/2000/svg" xmlns:xlink="http://www.w3.org/1999/xlink" x="0px" y="0px"
	 viewBox="0 0 24 24" style="enable-background:new 0 0 24 24;" xml:space="preserve">
<style type="text/css">
	.st0{fill:#3EC8ED;}
</style>
<g>
	<title>browser-gauge-1</title>
	<path class="st0" d="M2.5,22C1.1,22,0,20.9,0,19.5v-16C0,2.1,1.1,1,2.5,1h19C22.9,1,24,2.1,24,3.5v16c0,1.4-1.1,2.5-2.5,2.5H2.5z
		 M1,19.5C1,20.3,1.7,21,2.5,21h19c0.8,0,1.5-0.7,1.5-1.5V7H1V19.5z M23,6V3.5C23,2.7,22.3,2,21.5,2H9v4H23z M8,6V2H5v4H8z M4,6V2
		H2.5C1.7,2,1,2.7,1,3.5V6H4z"/>
	<path class="st0" d="M4,18c-0.3,0-0.5-0.2-0.5-0.5S3.7,17,4,17h2c0.3,0,0.5,0.2,0.5,0.5S6.3,18,6,18H4z"/>
	<path class="st0" d="M12,12c-0.3,0-0.5-0.2-0.5-0.5v-2C11.5,9.3,11.7,9,12,9s0.5,0.2,0.5,0.5v2C12.5,11.8,12.3,12,12,12z"/>
	<path class="st0" d="M7.8,13.8c-0.1,0-0.3-0.1-0.4-0.1L6,12.2c-0.1-0.1-0.1-0.2-0.1-0.4s0.1-0.3,0.1-0.4s0.2-0.1,0.4-0.1
		s0.3,0.1,0.4,0.1l1.4,1.4c0.1,0.1,0.1,0.2,0.1,0.4s-0.1,0.3-0.1,0.4S7.9,13.8,7.8,13.8z"/>
	<path class="st0" d="M18,18c-0.3,0-0.5-0.2-0.5-0.5S17.7,17,18,17h2c0.3,0,0.5,0.2,0.5,0.5S20.3,18,20,18H18z"/>
	<path class="st0" d="M11.6,18.5c-0.1,0-0.2,0-0.3-0.1c-0.6-0.2-1-0.9-0.8-1.5l0.1-0.4c0.2-0.7,0.6-1.3,1.2-1.6l4.5-2.6
		c0.1-0.1,0.3-0.2,0.6-0.2c0.2,0,0.3,0.1,0.4,0.2c0.2,0.3,0.2,0.6-0.1,1L14,17.6c-0.5,0.6-1.1,0.9-1.8,0.9c0,0,0,0,0,0
		C12.2,18.5,11.6,18.5,11.6,18.5z M12.4,15.7c-0.4,0.2-0.6,0.6-0.8,1l-0.1,0.4c0,0.1,0,0.3,0.1,0.3c0,0,0,0,0.1,0l0.5,0
		c0.4,0,0.8-0.2,1-0.5l2.3-3.1L12.4,15.7z"/>
</g>
</svg>
