<?xml version="1.0" encoding="utf-8"?>
<!-- Generator: Adobe Illustrator 22.0.1, SVG Export Plug-In . SVG Version: 6.00 Build 0)  -->
<svg version="1.1" id="Layer_1" xmlns="http://www.w3.org/2000/svg" xmlns:xlink="http://www.w3.org/1999/xlink" x="0px" y="0px"
	 viewBox="0 0 226.7 85.6" style="enable-background:new 0 0 226.7 85.6;" xml:space="preserve">
<style type="text/css">
	.st0{fill:#183C8D;}
	.st1{fill:#FFFFFF;}
	.st2{fill:#F37121;}
</style>
<path class="st0" d="M146.7,41.2c3.6-1.7,8.9-6.3,8.9-14.2c0-9.6-7.1-17.3-22.7-17.3H104v10.6h7v56.8h22.9c12.2,0,23.8-5.4,23.8-19
	c0-10.6-7.4-15.4-10.9-16.6V41.2 M123.8,20.3h8.3c6.4,0,10,3,10,8.4c0,5.5-4.5,8.2-10,8.2h-8.3V20.3z M123.8,47h8.4
	c7.5,0,11.9,3.6,11.9,10.1c0,6-4.6,9.4-11.9,9.4h-8.4V47z"/>
<path class="st0" d="M226.7,43.4c0-21-14.7-33.7-38.6-33.7h-23.3v10.6h7v56.8h16.3C212,77.1,226.7,64.5,226.7,43.4 M213.1,43.4
	c0,14.2-8.1,23.1-22.2,23.1h-6.2V20.3h6.2C205,20.3,213.1,29.3,213.1,43.4"/>
<path class="st1" d="M0.8,34.4l42,17.2l42-17.2l-0.2-0.9l-25.4,1.6c0,0,12.7-13.2,17.6-18.4l-0.5-0.6L53.5,29.5l8.4-25l-0.6-0.3
	L46.5,26.8L43.1,0h-0.7l-3.4,26.8L24.3,4.2l-0.6,0.3l8.3,25L9.3,16.2l-0.5,0.6l17.6,18.4c0,0-18.3-1.2-25.4-1.7L0.8,34.4"/>
<path class="st2" d="M42.4,0C36,0.1,29.8,1.5,24.3,4.2l14.8,22.6L42.4,0 M26.4,35.2L8.8,16.8C5.1,21.7,2.4,27.4,1,33.5
	C8.1,34,26.4,35.2,26.4,35.2 M32,29.5l-8.3-25c-5.6,2.8-10.5,6.8-14.4,11.7L32,29.5z M59.2,35.1l25.4-1.6
	c-1.4-6.2-4.1-11.9-7.8-16.7C71.8,21.9,59.2,35.1,59.2,35.1 M53.5,29.5l22.8-13.3c-3.9-4.9-8.8-8.9-14.4-11.7L53.5,29.5z M43.1,0
	c6.5,0.1,12.6,1.5,18.1,4.2L46.5,26.8L43.1,0z"/>
<path class="st0" d="M84.8,34.4c0.5,2.7,0.8,5.5,0.8,8.4c0,23.6-19.2,42.8-42.8,42.8C19.2,85.6,0,66.4,0,42.8c0-2.9,0.3-5.7,0.8-8.4
	l42,17.2L84.8,34.4"/>
<path class="st1" d="M62,54.4c-1.5,8.4-8.4,14.9-17,15.9c2.5-0.9,4.3-3.3,4.3-6.1c0-3.6-2.9-6.5-6.5-6.5c-3.6,0-6.5,2.9-6.5,6.5
	c0,2.8,1.8,5.2,4.3,6.1c-8.5-0.9-15.4-7.3-17-15.6l-8.8-3.8c0.3,15.2,12.7,27.5,28,27.5c15.4,0,27.8-12.4,28-27.7L62,54.4"/>
</svg>
