<?xml version="1.0" encoding="utf-8"?>
<!-- Generator: Adobe Illustrator 22.1.0, SVG Export Plug-In . SVG Version: 6.00 Build 0)  -->
<svg version="1.1" id="Layer_1" xmlns="http://www.w3.org/2000/svg" xmlns:xlink="http://www.w3.org/1999/xlink" x="0px" y="0px"
	 viewBox="0 0 24 24" style="enable-background:new 0 0 24 24;" xml:space="preserve">
<style type="text/css">
	.st0{fill:#FF2896;}
</style>
<g>
	<title>button-loop-arrow</title>
	<path class="st0" d="M6,18c-3.3,0-6-2.7-6-6s2.7-6,6-6c2.1,0,3.5,1.4,4.3,2.6l0.4-2.1c0-0.2,0.3-0.4,0.5-0.4c0,0,0.1,0,0.1,0
		c0.3,0.1,0.4,0.3,0.4,0.6L11,10.1c0,0,0,0,0,0.1c0,0,0,0.1,0,0.1c0,0,0,0,0,0.1s0,0-0.1,0.1c0,0,0,0,0,0c0,0,0,0,0,0c0,0,0,0,0,0
		c0,0,0,0-0.1,0c0,0-0.1,0-0.1,0c0,0,0,0,0,0c0,0-0.1,0-0.1,0L6.9,9.8c-0.1,0-0.2-0.1-0.3-0.2C6.5,9.5,6.5,9.4,6.5,9.2
		C6.6,9,6.8,8.8,7,8.8c0,0,0.1,0,0.1,0l2.4,0.5C8.9,8.4,7.7,7,6,7c-2.8,0-5,2.2-5,5s2.2,5,5,5c2.2,0,3.9-2.7,5.6-5.3
		C13.4,8.9,15.2,6,18,6l0.1,0c3.2,0,5.9,2.6,6,5.9c0.1,3.3-2.6,6.1-5.9,6.1l-0.1,0c-2,0-3.9-1-5-2.7c-0.1-0.2-0.1-0.5,0.1-0.7
		c0.1-0.1,0.2-0.1,0.3-0.1c0.2,0,0.3,0.1,0.4,0.2c0.9,1.4,2.5,2.3,4.2,2.3c0,0,0.1,0,0.1,0c2.8-0.1,5-2.3,4.9-5.1
		c-0.1-2.7-2.3-4.9-5-4.9L18,7c-2.2,0-3.9,2.7-5.6,5.3C10.6,15.1,8.8,18,6,18z"/>
</g>
</svg>
