<?xml version="1.0" encoding="utf-8"?>
<!-- Generator: Adobe Illustrator 22.1.0, SVG Export Plug-In . SVG Version: 6.00 Build 0)  -->
<svg version="1.1" id="Layer_1" xmlns="http://www.w3.org/2000/svg" xmlns:xlink="http://www.w3.org/1999/xlink" x="0px" y="0px"
	 viewBox="0 0 24 24" style="enable-background:new 0 0 24 24;" xml:space="preserve">
<style type="text/css">
	.st0{fill:#3EC8ED;}
</style>
<g>
	<title>content-browser-edit</title>
	<path class="st0" d="M2.5,22C1.1,22,0,20.9,0,19.5v-15C0,3.1,1.1,2,2.5,2h19C22.9,2,24,3.1,24,4.5C24,4.8,23.8,5,23.5,5
		S23,4.8,23,4.5C23,3.7,22.3,3,21.5,3h-19C1.7,3,1,3.7,1,4.5V7h15c0.3,0,0.5,0.2,0.5,0.5S16.3,8,16,8H1v11.5C1,20.3,1.7,21,2.5,21
		h19c0.8,0,1.5-0.7,1.5-1.5V11c0-0.3,0.2-0.5,0.5-0.5S24,10.7,24,11v8.5c0,1.4-1.1,2.5-2.5,2.5H2.5z"/>
	<circle class="st0" cx="4.3" cy="4.8" r="0.8"/>
	<circle class="st0" cx="7.3" cy="4.8" r="0.8"/>
	<circle class="st0" cx="10.3" cy="4.8" r="0.8"/>
	<path class="st0" d="M13.5,16c-0.1,0-0.3-0.1-0.4-0.1C13,15.7,13,15.5,13,15.4l1-3.5c0,0,0,0,0-0.1c0,0,0,0,0,0s0,0,0,0
		c0-0.1,0.1-0.1,0.1-0.1l6-6c0.4-0.4,1-0.6,1.6-0.6h0c0.6,0,1.2,0.3,1.6,0.7c0.9,0.9,0.9,2.3,0,3.2l-6,6c0,0-0.1,0.1-0.1,0.1
		c0,0,0,0,0,0c0,0,0,0,0,0l-3.5,1C13.6,16,13.5,16,13.5,16z M14.2,14.8l1.8-0.5L14.7,13L14.2,14.8z M17,13.8l4.5-4.5l-1.8-1.8
		L15.2,12L17,13.8z M22.2,8.6l0.4-0.4c0.5-0.5,0.5-1.3,0-1.8C22.4,6.2,22.1,6,21.7,6l0-0.3V6c-0.3,0-0.7,0.1-0.9,0.4l-0.4,0.4
		L22.2,8.6z"/>
	<path class="st0" d="M3.5,12C3.2,12,3,11.8,3,11.5S3.2,11,3.5,11H8c0.3,0,0.5,0.2,0.5,0.5S8.3,12,8,12H3.5z"/>
	<path class="st0" d="M3.5,15C3.2,15,3,14.8,3,14.5S3.2,14,3.5,14H11c0.3,0,0.5,0.2,0.5,0.5S11.3,15,11,15H3.5z"/>
	<path class="st0" d="M3.5,18C3.2,18,3,17.8,3,17.5S3.2,17,3.5,17h16c0.3,0,0.5,0.2,0.5,0.5S19.8,18,19.5,18H3.5z"/>
</g>
</svg>
